<?xml version="1.0" encoding="UTF-8" standalone="no"?>
<svg id="svg2" xmlns:rdf="http://www.w3.org/1999/02/22-rdf-syntax-ns#" xmlns="http://www.w3.org/2000/svg" height="1063pt" width="799pt" version="1.1" xmlns:cc="http://creativecommons.org/ns#" xmlns:dc="http://purl.org/dc/elements/1.1/" viewBox="0 0 799 1063">
<path id="path4" d="m408.42 6.3066c-1.64 0.0446-3.31 0.2067-5.02 0.4942-21.94 5.9002-30.58 29.787-42.15 46.949-28.16 39.75-28.59 91.61-43.56 135.34-52.9 6.4-90.94 49.42-122.34 88.76-69.88 95.74-124.84 203.91-154.96 318.79-7.816 29.51-29.078 56.69-24.765 88.32 23.525 42.93-17.75 88.4-8 132.38 30.737 31.76 1.6883 79.3 10.051 117.48 6.6 2.33 16.636 2.74 17.262 11.59 4.537 33.66 23.274 63.79 24.224 97.99 22.488 21.7 31.976 52.1 52.018 75.8 8.28 10.7 1.17 26.3 7.52 37.3 6.46-1.6 13.74-2.6 19.92 0.3 1.12 8.6-1.5 17.7 1.63 25.9 11.26 3.1 25.01-2.5 34.35 6.1 0.34 10.2 1.13 24.1 12.49 28.4 6.05 3 8.68-6.4 14.82-3.9 20.48 6.5 27.94 34.2 51.19 33.7 48.4 29.5 98.99 57.8 154.87 70.3 29.12 5.5 64.95 3.2 85.1-21.5 15.03-19.5 9.85-46.4-0.57-66.8-20.88-53.6-43.18-106.9-58.9-162.3-5.15-20.2-0.35-41.5-5.85-61.8-15.91-84.16-31.97-168.46-48.94-252.4-4.19-8.06 4.54-6 6.66-2.66 10.67 14.92 4.58 35.6 8.49 51.21 38.62 10.15 13.67 61.99 38.4 83.07 12.17-0.73 20.15 9.58 26.32 18.76 39.82 62.37 93.92 116.92 160 151.22 51.01 27.7 108.93 37.6 165.26 48.5 56.5 8 118.67 12.5 170.66-15.3 27.62-12.8 43.17-51.5 20.6-76.1-53.21-53.88-113.8-104.14-147.63-173.52-72.66-118.28-164.07-224.36-231.51-345.98-10.11-20.86-21.73-41.4-27.2-64.08-15.27-80.36-21.42-162.5-41.83-241.83-4.08-17.29-22.42-21.78-38.1-21.43 6.47-26.7 28.66-43.25 47.35-61.51 21.32-22.5-0.41-63.363-30.02-62.5-20.55-2.35-31.35 17.876-38.87 33.513-17.48 30.737-27.23 66.297-24.5 101.75 4.12 2.04 15.7 0.83 4.15 4.29-9.74 14.41-21.87 28.57-36.28 38.86-7.24-5.76 4.4-24.34-7.5-29.56-7.81-9.15-24.99-6-29.37-15.69 18.45-7.04 12.39-29.25 23.99-41.66 7.97-10.45 22.62-12.52 29.82-23.92 13.02-17.029 39.66-31.992 31.11-57.118-8.72-20.554-25.79-46.174-50.39-45.505zm0.74 28.955c8.31 3.8 10.59 18.139 12.16 26.914-8.31-2.263-15.2-8.376-23.28-11.526-0.2-5.775 7.55-10.538 11.12-15.388zm-26.38 41.312c4.92 7.025 26.86 7.025 21.73 17.813-20.92 5.3-27.65 30.093-44.52 39.073 5.07-19.52 13.91-39.436 22.79-56.886zm106.77 23.043c5.39 0.379 2.05 11.183-3.49 11.493-8 6.85-3.18-9.06-0.44-10.5 1.64-0.774 2.94-1.063 3.93-0.993zm5.77 101.92c1.25 0.02 2.32 0.73 2.23 2.3 9.74 48.05 18.29 96.35 27.96 144.41 7.99 43.53 14.27 88.24 34.14 128.35 28.2 61.6 70.45 115.31 102.81 174.68 57.4 113.78 146.39 206.88 220.55 309.46 20.2 28 51.65 45.46 71.98 73.26 4.39 4.2 1.72 11.6-2.39 14.9-5.98-13-20.21-18.6-33.2-22.1-55.51-12.9-108.5-35.82-157.16-65.27-32.56-19.39-50.49-54.59-79.3-78.22-48.55-40.79-86.84-92.3-120.7-145.52-11.65-15.65-11.1-36.61-25.95-50.36-49.62-92.3-57.89-198.66-76.35-299.96-4.66-57.23 3.18-114.33 3.12-171.53 9.55-6.15 20.13-10.85 30.99-14.19 0.42-0.14 0.85-0.21 1.27-0.21zm-134.79 10.85c9.53-0.05 17.83 2.11 13.15 14.97-9.32 79.28-37.32 154.9-51.79 233.23-11.82 110.74 22.52 218.75 26.1 328.92 12.89 96.93 44.78 190.4 56.11 287.69 13.47 59.6 42.5 114.4 65.45 170.8 4.98 11.8 8.05 30.5-7.45 36.1-0.7-5.1 2.1-11.2-2.22-15.2-43.48-44.4-87.5-88.4-130.39-133.4-13.96-14.1-14.38-34-16.4-52.3-11.05-1.8-25.58-3.5-27.9-17.3-2.21-27.3-11.9-53.3-25.35-76.99-35.94-77.82-55.79-162.75-60.4-248.22-11-92.3 13.27-182.95 36.09-271.43 9.11-59.49 31.38-115.75 55.88-170.37 15.66-29.3 25.91-66.25 53.19-85.9 4.06 0.24 10.22-0.58 15.93-0.6zm-79.15 45.2c1.29-0.01 0.66 2.6 0.23 3.9-7.47 16.41-12.36 36.39-30.29 44.82-25.93 26.9-49.18 56.33-74.57 83.79 4.75-30.48 30.7-52.14 50.45-74.14 21-16.3 26.85-47.87 52.95-57.9 0.53-0.33 0.93-0.47 1.23-0.47zm150.51 32.87c1.56 8.94 4.82 26.71 0.11 38.01-28.35 0.14-30.81 34.04-48.24 47.63 7.91-32.14 22.23-64.01 48.13-85.64zm-1.54 64.65c3.76 6.24 6 24.49 0.33 33.99-27.78 1.25-24.32 41.26-44.4 51.91-0.9-35.59 34.52-55.07 44.07-85.9zm-195.62 11.15c2.8-0.2-0.48 6.02-0.82 8.78-17.04 59.52-65.96 101.75-95.06 155.07-15.2 32.03-49.3 48.24-67.375 77.86-3.85 5.19-6.638-0.48-4.088-4.16 20.237-49.89 58.813-89.02 87.573-133.85 20.39-38.2 48.65-71.96 78.18-103.2 0.67-0.32 1.2-0.48 1.59-0.5zm203.58 47.74c4.05 50.25-30.91 94.12-63.63 126.94-2.69-15.24 8.66-31.42 16.13-45.13 15.79-26.79 24.43-58.33 45.7-81.57 0.45-0.06 1.35-0.19 1.8-0.24zm-92 83.53c2.85 9.02 0.83 23.66 1.13 34.94-2.86-9.03-0.84-23.67-1.13-34.94zm107.93 29.02c2.62 8.36 8.23 24.09-3.2 32.01-20.89 38.13-39.74 77.53-61.18 115.33-3.86-8.6-8.26-18.88-4.33-28.18 8.21-7.37 21.12-13.46 19.85-26.57 1.61-37.44 35.6-61.71 48.86-92.59zm-269 22.27c4.17 7.15-3.25 21.07-3.44 30.44-0.6 15.09-21.7 11.27-27.06 23.02-26.78 40.22-43.37 89.13-84.14 118.31-7.975 4.42-8.788 17.64-17.788 19.5 11.05-41.96 45.426-71.89 69.718-106.31 20.42-28.67 40.28-57.77 62.71-84.96zm283.81 38.88c4.56 7.21 13.56 26.4-3.31 22.76-17.66 16.63-19.28 48.36-37.3 64.14-2.43-32.41 26.06-59.05 40.61-86.9zm11.24 44.01c6.67 0.07 8.3 10.5 10.78 15.97 4.57 9.78-9.98 12.68-13.82 19.6-20.86 33.43-30.66 72.06-46.1 107.98-7.16-5.39-10.16-19.86-1.6-25.7 18.79-16.56 12.7-43.72 23.05-64.42 6.21-19.69 27.87-31.34 27.69-53.43zm-305.89 42.05c0.35 37.16-29.33 64.89-46.86 95.03-14.04 24.06-33.964 43.08-57.489 57.41 30.009-53.59 65.759-104.54 104.35-152.44zm324.9 6.69c13.48 5.04 14.84 25.73 11.77 39.16-7.27 21.8-16.98 45.1-36.56 58.63-11.9 12.47-12.72 30.77-18.87 46.04-0.59 3.08-5.65 4.93-5.05 0.42 1.79-26.98 18.91-50.08 22.25-76.82 4.07-24.28 18.16-44.71 26.46-67.43zm-130.54 27.41c6.75 1.35 8.7 18.98 6.54 24.33-4.89-5.28-6.04-16.61-6.54-24.33zm162.99 37.23c5.97 0.59 3.53 10.32 0.96 13.69-25.63 37.7-43.32 81.14-50.45 125.98-3.29-5.41-18.12-16.04-10.15-25.12 23.72-36.17 34.33-79.48 59.64-114.55zm-357.04 13.66c-4.08 24.81-22.04 43.85-36.05 63.68-31.77 41.22-49.523 90.41-72.773 136.38-5.6-17.31-10.249-40.02 1.513-57.7 28.025-51.68 64.14-99.34 104.49-141.91 0.7-0.11 2.12-0.34 2.82-0.45zm373.2 20.32c15.73 4.64 21.42 25.69 30.64 38.58 5.11 8.14-8.89 2.86-9.15 9.4-3.47 22.33-14.94 42.01-21.46 63.38-8.03 19.65-7.5 43.8-15.5 62.1-15.83-23.82 15.06-42.92 9.42-67.81 10.17-27.21 25.42-52.83 25.6-82.92-6.01-5.51-14.24-5.04-21.76-6.18 0.41-4.96-1.7-13 2.21-16.55zm-9.86 29.93c3.01 8.91-7.73 29.14-14.36 37.22-1.18-12.43 4.22-28.46 14.36-37.22zm-361.31 6.49c5.99 14.45 8.4 39.22 10.83 57.95-6.7 0.46-11.73-11.87-18.16-6.59-19.07 30.2-36.81 61.31-56.16 91.39-5.34 6.34-11.84 14.9-20.662 15.04 3.475-39.09 35.452-66.83 47.962-102.69 10.03-19.48 15.9-43.74 36.19-55.1zm413.61 26.04c9.47 1.05 19.7 10.06 21.59 19.09-15.05 9.36-14.34 27.78-18.25 43.04-3.67 14.76-15.67 25.02-25.3 36.05-1.53 2.7-8.2 1.3-2.6-3.82 6.95-31.77 18.05-62.5 24.56-94.36zm-398.59 56.1c3.48-0.13 4.95 6.89 4.23 9.32-22.53 54.19-61.86 102.05-70.06 161.55-1.52 4.9-0.24 12.7-5.83 15.4-11.95-12.7-20.65-29.7-22.188-46.9 30.308-46.61 51.698-100.33 92.698-139.09 0.41-0.18 0.79-0.27 1.15-0.28zm306.79 0.42c8.35-0.24 7.46 12.7 1.63 17.33-1.72-4.08-10.57-12.25-5.78-16.35 1.58-0.64 2.96-0.94 4.15-0.98zm151.96 2.79c9.34 0.4 6.45 15.26 4.08 22.41-10.45 34.91-15.64 71.04-22.2 106.75-15.33-2.8-26.91-23.6-12.51-34.96 14.31-16.73 0.37-41.56 14.41-58.29 9.05-9.81 8.95-23.07 11.43-35.13 1.87-0.59 3.46-0.83 4.79-0.78zm25.84 29.21c7.35 0.61 15.27 8.55 11.69 16.56-4.18 12.43-4.05 31.1-14.23 38.18-2.1-16.67 1.49-37.15 2.54-54.74zm56.22 45.24c17.98 8.57 34.41 21.37 51.14 32.41-14.05-0.7-10.11 15.5-15.92 22.9-7.65-9-3.02-20.3-3.63-30.6-3.37-10.66-17.51-6.99-25.94-8.34-3.3 21.34-0.84 43.64-0.23 65.24 8.42 2.2 17.16 0.5 25.75 1.2 5.8-0.7-0.89-11.4 4.64-11.6 0.73 8-3.82 23.9 9.55 21.1 7.61-1.7 19.17 4.1 24.62-3.3-1.39-17.3-5.39-34.3-7.91-51.5 4.57 1.9 11.64 1.6 13.98 6.8-0.21 18.9-3.29 38.1 2.31 56.5-28.98-5.4-58.66-9.6-86.96-17.3 4.7-8.5-0.41-20 8.33-26.2-0.24-19.2-3.31-38.08 0.27-57.31zm-513.23 12.09c-1.33 48.92-27.32 93.82-34.87 142.12-2.53 7.7 0.11 23.1-11.82 23.2-10.29-13 1.99-26.1 7.07-38 5.3-17.8 2.46-36.8 6.46-54.8 2.58-27.2 19.06-50.2 33.16-72.52zm367.7 1c5.38 18.22-11.38 9.26 0 0zm112.57 15.02c0.2 16.7-2.07 33.4-3.82 50.1-7.5 2.6-19.01-0.6-15.74-10.8 4.65-13.9 10.71-27.6 19.56-39.3zm135.3 29.5c8 2.2 15.69 6 22.52 10.8-10.22 12.6 3.58 24.7 7.48 36.4-3.77 3.5-21.36 4.9-17.51-6.3-4.11-13.7-15.5-25-12.49-40.9zm-593.31 6.2c15.21 9.3 3.35 28.8 0.14 42.6-8.61 36.3-17.22 73.1-16.8 110.5-8.63-0.4-15.03-8.8-21.72-13.4-3.51-10.3 11.87-14.9 9.98-25.8 2.81-39 7.6-80 28.4-113.9zm-88.54 31.3c4.34 4.6-1.12 17.7-5.11 24.7-0.79-7.8-0.59-19.1 5.11-24.7zm115.91 23.7c9.89-0.1 11.05 17.4 13.29 24.2 2.25 35.6-7.51 70.5-7.5 106-13.84 6.9-38.84-25.8-15.22-28.7 0.71-13-4.39-25.6-4.6-38.5-2.04-22.1 10.06-41.6 13.05-62.9 0.34-0.1 0.66-0.1 0.98-0.1zm707.24 65.7c-5.84 0.1-11.67 0.1-17.5 0.1 8.09 3.7 26.95 1.4 35.01 0.2-5.83-0.3-11.67-0.3-17.51-0.3zm-644.55 29.1c6.75 2.5 22.68 11.5 14.09 20.5-5.06 5.6-3.16 15.5-9.06 20-9.87-10.6-10.9-27.8-5.03-40.5zm40.98 43.9c29.28 13.4 40.32 57 76.75 57.1-22.09 11.3-46.72-5.1-69.54-7.1-10.95-0.7-2.64-12.6-2.41-18.9 5.11-11.5-10.8-19.6-4.8-31.1z" transform="scale(.8)" fill="#f7e300"/>
</svg>
