<svg width="520.65" height="132.837" xmlns="http://www.w3.org/2000/svg" viewBox="-10.325 8.581 520.65 132.837" style="background:0 0" preserveAspectRatio="xMidYMid"><defs><filter id="editing-extrusion" x="-100%" y="-100%" width="300%" height="300%"><feFlood result="color1" flood-color="#72a0c5"/><feConvolveMatrix order="8,8" divisor="1" kernelMatrix="1 0 0 0 0 0 0 0 0 1 0 0 0 0 0 0 0 0 1 0 0 0 0 0 0 0 0 1 0 0 0 0 0 0 0 0 1 0 0 0 0 0 0 0 0 1 0 0 0 0 0 0 0 0 1 0 0 0 0 0 0 0 0 1" in="SourceAlpha" result="extrude"/><feComposite in="color1" in2="extrude" result="comp-extrude" operator="in"/><feOffset dx="4" dy="4" in="comp-extrude" result="offset-extrude"/><feMerge><feMergeNode in="offset-extrude"/><feMergeNode in="SourceGraphic"/></feMerge></filter></defs><g filter="url(#editing-extrusion)"><path d="M97.685 97.72h-27.27V53.05h27.27v4.73h-21.89v14.98h20.61v4.74h-20.61v15.48h21.89v4.74zm25.21-16.7h-16.7v-5.51h16.7v5.51zm22.79 17.47q-3.46 0-6.21-1.22-2.75-1.21-4.64-3.45-1.89-2.24-2.88-5.44t-.99-7.17q0-3.97.99-7.17.99-3.2 2.88-5.44t4.64-3.46q2.75-1.21 6.21-1.21 4.92 0 7.9 2.14 2.98 2.15 4.45 5.6l-4.29 2.18q-.9-2.56-2.94-3.97-2.05-1.41-5.12-1.41-2.31 0-4.04.74-1.72.73-2.88 2.05-1.15 1.31-1.72 3.13-.58 1.83-.58 4v5.63q0 4.36 2.34 7.14 2.33 2.78 6.88 2.78 6.2 0 8.96-5.76l3.71 2.5q-1.6 3.58-4.77 5.7-3.17 2.11-7.9 2.11zm32 0q-3.33 0-6.08-1.22-2.76-1.21-4.71-3.49-1.95-2.27-3.04-5.44-1.09-3.16-1.09-7.13 0-3.91 1.09-7.11t3.04-5.47q1.95-2.27 4.71-3.49 2.75-1.21 6.08-1.21 3.32 0 6.04 1.21 2.72 1.22 4.71 3.49 1.98 2.27 3.07 5.47 1.09 3.2 1.09 7.11 0 3.97-1.09 7.13-1.09 3.17-3.07 5.44-1.99 2.28-4.71 3.49-2.72 1.22-6.04 1.22zm0-4.55q4.16 0 6.78-2.56t2.62-7.8v-4.74q0-5.25-2.62-7.81-2.62-2.56-6.78-2.56t-6.79 2.56q-2.62 2.56-2.62 7.81v4.74q0 5.24 2.62 7.8 2.63 2.56 6.79 2.56zm28.48 3.78h-5.12V64.7h5.12v5.37h.25q.58-1.28 1.31-2.4.74-1.12 1.8-1.95 1.05-.83 2.46-1.31 1.41-.48 3.33-.48 3.26 0 6.01 1.57 2.76 1.56 4.1 5.15h.13q.89-2.69 3.36-4.71 2.46-2.01 6.69-2.01 5.05 0 7.9 3.29 2.85 3.3 2.85 9.32v21.18h-5.12V77.43q0-4.41-1.73-6.65t-5.5-2.24q-1.54 0-2.92.38-1.37.38-2.46 1.15-1.09.77-1.73 1.95-.64 1.19-.64 2.79v22.91h-5.12V77.43q0-4.41-1.73-6.65-1.72-2.24-5.37-2.24-1.54 0-2.95.38-1.4.38-2.49 1.15-1.09.77-1.76 1.95-.67 1.19-.67 2.79v22.91zm55.87 0h-5.12V64.7h5.12v5.37h.25q.58-1.28 1.32-2.4.73-1.12 1.79-1.95 1.05-.83 2.46-1.31 1.41-.48 3.33-.48 3.26 0 6.02 1.57 2.75 1.56 4.09 5.15h.13q.9-2.69 3.36-4.71 2.46-2.01 6.69-2.01 5.05 0 7.9 3.29 2.85 3.3 2.85 9.32v21.18h-5.12V77.43q0-4.41-1.73-6.65t-5.5-2.24q-1.54 0-2.91.38-1.38.38-2.47 1.15-1.09.77-1.73 1.95-.64 1.19-.64 2.79v22.91h-5.12V77.43q0-4.41-1.72-6.65-1.73-2.24-5.38-2.24-1.54 0-2.94.38-1.41.38-2.5 1.15-1.09.77-1.76 1.95-.67 1.19-.67 2.79v22.91zm63.17.77q-3.4 0-6.12-1.22-2.72-1.21-4.67-3.49-1.95-2.27-3.01-5.44-1.05-3.16-1.05-7.13 0-3.91 1.05-7.11 1.06-3.2 3.01-5.47 1.95-2.27 4.67-3.49 2.72-1.21 6.12-1.21 3.32 0 5.95 1.21 2.62 1.22 4.48 3.36 1.85 2.15 2.85 5.09.99 2.95.99 6.47v2.43h-23.75v1.53q0 2.12.68 3.94.67 1.82 1.92 3.17 1.24 1.34 3.07 2.11 1.82.77 4.13.77 3.13 0 5.47-1.47 2.33-1.48 3.61-4.23l3.65 2.63q-1.6 3.39-4.99 5.47-3.39 2.08-8.06 2.08zm0-30.27q-2.12 0-3.84.73-1.73.74-2.98 2.08-1.25 1.35-1.95 3.17-.71 1.82-.71 4v.45h18.24v-.71q0-4.41-2.4-7.07-2.4-2.65-6.36-2.65zm27.84 29.5h-5.12V64.7h5.12v6.08h.32q.89-2.37 3.2-4.23 2.3-1.85 6.33-1.85h1.99v5.12h-3.01q-4.16 0-6.5 1.56-2.33 1.57-2.33 3.94v22.4zm30.33.77q-3.45 0-6.21-1.22-2.75-1.21-4.64-3.45-1.88-2.24-2.88-5.44-.99-3.2-.99-7.17 0-3.97.99-7.17 1-3.2 2.88-5.44 1.89-2.24 4.64-3.46 2.76-1.21 6.21-1.21 4.93 0 7.91 2.14 2.97 2.15 4.44 5.6l-4.28 2.18q-.9-2.56-2.95-3.97-2.05-1.41-5.12-1.41-2.3 0-4.03.74-1.73.73-2.88 2.05-1.15 1.31-1.73 3.13-.57 1.83-.57 4v5.63q0 4.36 2.33 7.14 2.34 2.78 6.88 2.78 6.21 0 8.96-5.76l3.71 2.5q-1.6 3.58-4.76 5.7-3.17 2.11-7.91 2.11zm31.94 0q-3.39 0-6.11-1.22-2.72-1.21-4.68-3.49-1.95-2.27-3-5.44-1.06-3.16-1.06-7.13 0-3.91 1.06-7.11 1.05-3.2 3-5.47 1.96-2.27 4.68-3.49 2.72-1.21 6.11-1.21 3.33 0 5.95 1.21 2.62 1.22 4.48 3.36 1.86 2.15 2.85 5.09.99 2.95.99 6.47v2.43h-23.74v1.53q0 2.12.67 3.94.67 1.82 1.92 3.17 1.25 1.34 3.07 2.11 1.82.77 4.13.77 3.13 0 5.47-1.47 2.34-1.48 3.62-4.23l3.64 2.63q-1.6 3.39-4.99 5.47-3.39 2.08-8.06 2.08zm0-30.27q-2.11 0-3.84.73-1.73.74-2.98 2.08-1.25 1.35-1.95 3.17-.7 1.82-.7 4v.45h18.24v-.71q0-4.41-2.4-7.07-2.4-2.65-6.37-2.65z" fill="#fff"/></g><style></style></svg>