<?xml version="1.0" encoding="UTF-8" standalone="no"?>
<svg id="svg2" xmlns:rdf="http://www.w3.org/1999/02/22-rdf-syntax-ns#" xmlns="http://www.w3.org/2000/svg" height="741pt" width="689pt" version="1.1" xmlns:cc="http://creativecommons.org/ns#" xmlns:dc="http://purl.org/dc/elements/1.1/" viewBox="0 0 689 741">
<path id="path4" d="m0 0v0.97461c0.2375-0.25 0.72461-0.73711 0.97461-0.97461h-0.97461zm639.57 3.6758c-9.61 4.3375-13.96 14.587-19.52 22.812 6.55 15.775 21.66 31.874 14.14 50.137-8 16.087-16.19 32.675-14.95 51.315-2.66 56.87-33.99 105.87-59.18 154.9-1.76 10.62-8.2 19.67-18.62 23.32-6.6 5.21-15.4 8.38-19.04 16.52-0.1 6.3 6.8 9.36 9.32 14.68 13.87-4.71 22.99-17.59 36.69-22.82 16.21-27.47 38.19-52.18 48.35-82.88 18.15 2.36 17.4 30.5 35.53 34.81 59.67 25.45 133 17.83 187.74-16.41 20.91-10.56 18.46-36.08 4.87-51.22-30.17-35.21-73.9-71.29-124.05-56.73-31.3 2.99-58.88 18.79-83.21 36.65 12.68-31.12 19.39-64.42 23.64-97.66 0.3-25.85 2.26-60.412-21.71-77.424zm86.98 166.54c39.54 0.02 85.18 14.75 100.98 53.58-5.08 8.63-18.68 11.79-28.35 13.65-0.7-8.16 1.31-16.7-0.69-24.61-13.09-9.34-37.63 1.77-34.3 19.23-3.43 16.83 18.5 5.18 25.87 10.14-39.35 9.83-82.46 9.54-120.56-5.39-4.71-3.71-16.99-5.55-15.41-12.78 30.05-2.39 58.69 11.32 88.41 8.89 8.28-8.63 6.01-22.69 6.91-33.88-29.75-0.77-59.51-0.07-89.26-0.24 8.29-20.85 34.3-25.97 54.36-28.13 3.92-0.31 7.95-0.46 12.04-0.46z" transform="scale(.8)" fill="#029833"/>
<path id="path8" d="m349.91 202.36c-100.99 0.65-202.43 38.98-269.01 116.04-62.312 73.31-85.65 174.47-74.338 268.74 11.963 128.37 93.928 249.26 211.5 303.54 61.78 29.07 132.6 37.7 199.75 25.87 174.17-29.97 314.41-190.83 323.14-366.91 3.64-62.39-18.05-127.04-63.52-170.8-28.1-32.63-65.66-58.1-109.02-64.3-13.7 5.23-22.82 18.11-36.69 22.82-2.52-5.32-9.42-8.38-9.32-14.68-1.36 4.27-5.14 6.46-9.52 6.28 0.04-4.42 6.07-7.5 3.78-12.15-21.29-5.32-42.4-11.31-64.77-9.42-5.3-7.59 1.75-20.89-7.59-26.07-15.24 3.97-29.28-1.56-42.85-7.77-66.55-16.4-135 3.46-200 18.14-2.6 0.06-17.17 3.65-10.57-2.07 45.98-23.28 97.48-32.53 147.92-40.83 52.84-6.69 110.35 1.06 155.79 30.37 11.59 7.16 24.01 26.94 39.26 17.55 4.22 0.08 6.57 5.68 7.59 9.45 10.42-3.65 16.86-12.7 18.62-23.32-20.38-33.78-57.52-52.38-93.91-63.99-37.27-11.23-76.72-16.74-116.24-16.49zm-49.88 92.49c36.67-0.13 72.7 16.46 109.15 7.89-1.07 12.37-17.8 8.1-26 10.44-35.54 0.46-69.38 12.29-104.3 16.86-3.77-6.97 2.59-17.6-4.62-22.55-36.51 1.05-71.28 15.76-101.83 34.95-30.73 18.96-52.99 48.62-83.43 67.85-4.512 4.15-22.525 7.76-11.338-2.59 55.358-53.55 124.33-99.26 201.93-110.79 6.84-1.44 13.65-2.03 20.44-2.06zm160.01 33.76c9.93 0.03 19.71 2.88 28.75 6.85-8.9 0.68-26.53-0.02-30.74-6.82 0.66-0.03 1.33-0.04 1.99-0.03zm59.97 13.87c10.07-0.07 2.25 8.22-1.04 0.03 0.37-0.02 0.71-0.03 1.04-0.03zm29.68 5.31c31.04-0.24 64.23 11.11 83.76 35.02-23.53 0.8-46.11-16.6-69.9-22.63-7.41-3.72-20.1-3.89-23.4-11.94 3.15-0.27 6.33-0.42 9.54-0.45zm-124.18 6.67c24.18 0.22 47.71 8.76 72 9.66-0.05 1.72-0.14 5.14-0.19 6.85-83.66-0.67-167.31 12.69-246.43 39.98-4.08-0.54-14.19 6.56-15.71 1.73 57.78-31.89 122.46-51.1 187.98-58.22 0.78-0.01 1.57-0.01 2.35 0zm-145.3 5.63c2.52 0.08-0.21 4.52-2.83 5.01-79.17 33.89-154.92 78.56-215.79 140.24-8.227 5.84-13.865 15.02-22.877 19.57 52.912-82.52 139.43-146.07 237.03-163.13 2.2-1.25 3.63-1.71 4.47-1.69zm218.73 31.02c27.72 0.47 55.48-0.3 83.18 0.35 4.48 7.17-0.06 21.34 8.83 26.32 3.45-9.72 14.97-11 23.06-6.88 15.21 7.61 33.6 0.8 48.69 8.94 19.36 6.92 31.77 25.06 39.06 43.4 22.21 69.42 14.23 148.51-19.91 212.55-6.93-4.53-10-20.73-22.28-21.88-31.77-4.59-61.11 11.69-91.52 17.89-46.46 11.9-92.96 23.68-139.44 35.6-85.15 15.35-170.4-6.11-255.37-10.91-24.23-0.29-49.95-1.54-73.15-3.88 13.02-23.21 47.19-20.74 70.66-18.41 87.16 14.59 176.6 38.66 264.87 17.69 78-17.75 156.3-35.12 232.33-60.19 12.69-1.91 22.01-12.39 25.69-24.01-4.1-6.33-12.54-12.92-20.44-8.34-16.94 9.39-34.58 17.81-53.29 23.09-95.76 28.41-194.96 47.52-294.98 49.6-37.42 1.03-73.06-11.43-110.04-14.26-7.32-1.59 5.85-4.88 7.11-4.67 22.32-2.92 44.51-8.77 67.12-8.11 11.32 0.16 13.12 22.74 25.09 15.54 14.33-6.72 29.19-15.97 45.67-13.34 12.84 12.15 31.85 1.08 47.11-0.2 55.39-14.49 118.14-3.53 168.62-33.96-5.25-13.24-17.64-26.24-27.41-37.36-56.43 17-116.02 27.71-175.08 30.32-56.81-9.99-111.05 11.99-166.8 18.01 9.29-10.14 25.24-13.29 37.74-18.72 126.83-41.68 262.32-43.45 394.38-41.83 4.76-10.6-6.4-23.6-16.8-27.61-60.03-24.29-126.18-28.02-190.13-23.11-62.75 4.64-125.74 13.21-185.66 33.12-48.49 15.35-98.14 33.73-135.85 69.13-11.1 10.25-22.587 20.1-34.35 29.55-2.312 1-1.887-1.06-1.474-2.58 15.762-24.52 40.384-41 63.074-58.46 42.6-39.95 97.8-62.41 152.72-79.79 75.18-22.2 153.87-33.55 232.23-28.5 34.02 3.94 67.24 12.78 100.81 19.25 13.23 4.57-9.1 20.89-0.06 27.8 19.35-3.09 37.79 8.72 57.26 4.68 2.55-6.75 8.33-12.82 8.38-20.15-16.81-9.45-36.6-13.51-55.75-14.74-2.93-8.76 5.76-15.35 5.15-24.01 16.19 0.73 23.21-14.69 20.19-28.44-7.49-2.85-15.84-5.95-23.83-4.04-1.44 10.08-0.15 20.34-0.61 30.5-14.18 0.42-22.65-13.32-36.28-14.78-74.7-14.7-151.32-13.08-227.1-12.28-21.32 2.06-42.1 7.26-62.89 12.21 1.23-4.22 6.56-5.49 10.08-7.46 48.78-19.36 102.21-22.31 153.88-27.6 24.43-4.34 49.98 19.69 72.54 6.45 6.8-29.34-34.62-19.65-45.03-31.49zm-199.44 29.56c10.65-0.07-11.55 8.75-16.71 10.83-44.29 16.35-81.18 46.43-119.64 72.93-40.41 21.11-81.287 42.83-117.97 69.26 18.283-35.45 53.707-58.35 86.17-79.83 51.87-31.82 107.39-59.54 167.01-73.16 0.42-0.02 0.79-0.03 1.14-0.03zm159.57 114.74c14.93 1.29 30.54-1.73 45.13 2.37-30.91 3.07-64.2-3.54-95.34 4.9-12.02-0.29-26.77 6.45-37.65 2.56 28.8-6.61 58.4-8.75 87.86-9.83zm204.25 3.39c-7.32 8-6.44 22.26-6.57 32.95 14.59 0.27 29.56-5.33 44.31-6.84 11.53-0.75 4.24-14.45 0.95-20.65-11.35-7.32-25.94-4.4-38.69-5.46zm-561.96 29.97c1.83 0.29-0.03 4.69-1.772 5.74-18.975 22.11-37.062 45.99-58.412 65.64-2.038-8.09-4.976-17.11-3.026-25.45 21.625-13.44 38.45-33.59 61.313-45.38 0.857-0.46 1.477-0.61 1.897-0.55zm139.18 4.07c19.76 1.5-21.1 9.2 0 0zm-36.22 14.86c2.05 0.07 4.28 0.98-0.36 1.99-13.12 6.4-26.31 12.94-39.95 18.15 10.21-10.1 25.44-14.33 38.58-19.91 0.38-0.19 1.04-0.26 1.73-0.23zm470.83 97.76c5.4 1.74-4.8 14.45-6.62 19.3-27.5 35.61-66.49 60.91-91.58 98.81-10.21 3.42-5.96-15.21-16.27-10.51-54.18 19.16-114.42 22.12-169.23 12.24 10.99-3.57 21.55-8.49 32.87-11.02 88.8-22.83 170.64-65.64 250.83-108.82zm-611.11 3.16c12.125 5.88-10.587 11.52 0 0zm458.17 30.02c1.66 0.11 2.1 2.9-0.26 3.26-48.85 23.88-101.73 38.89-155.07 48.69-71.76 12.3-149.2-0.18-209.38-42.23 87.2-1.07 176.35 21.95 264.75 12.54 33.94-2.11 65.11-17.35 98.64-21.85 0.49-0.32 0.94-0.44 1.32-0.41zm-305.78 77.58c71.15 9.05 139.34 35.64 211.42 39.39 2.29 0.79 7.94-0.95 8.19 1.94-62.75 1.35-127.44 1.51-186.85-21.75-11.03-4.77-27.64-8.41-32.76-19.58zm277.18 58.59c2.18 0.03 3.68 0.6 1.14 2.4-36.61 20.53-78.32 30.64-119.82 35.26-9.17 0.97-0.34-13.33-9.15-15.78-19.97-8.14-42.49-7.48-62.93-14.72-12.35-1.76 0.08-2.52 3.93-1.41 60.03 12.93 122.11 9.3 181.58-4.91 0.2-0.36 3.06-0.87 5.25-0.84z" transform="scale(.8)" fill="#fd9833"/>
</svg>
